<svg width="197" height="58" viewBox="0 0 197 58" fill="none" xmlns="http://www.w3.org/2000/svg">
<g clip-path="url(#clip0_2004_3776)">
<path d="M25.8408 16.3291H25.8704C26.1621 16.3291 27.6648 16.1222 28.2036 12.2805C28.2431 11.7732 28.258 11.261 28.258 10.7389C28.258 9.5667 28.1591 8.38464 27.9663 7.24198C27.8131 6.2914 27.5807 5.32604 27.2199 4.41979C27.0123 3.91249 26.6416 2.86341 25.8259 2.84863H25.8111C25.0499 2.87818 24.7039 3.90757 24.4962 4.41979C24.1354 5.32604 23.8882 6.2914 23.735 7.24198C23.5422 8.38464 23.4434 9.5667 23.4434 10.7389C23.4434 11.261 23.473 11.7732 23.4977 12.2805C24.0514 16.1222 25.5442 16.3291 25.8309 16.3291H25.8408Z" fill="#354439"/>
<path d="M25.8408 16.3291H25.8704C26.1621 16.3291 27.6648 16.1222 28.2036 12.2805C28.2431 11.7732 28.258 11.261 28.258 10.7389C28.258 9.5667 28.1591 8.38464 27.9663 7.24198C27.8131 6.2914 27.5807 5.32604 27.2199 4.41979C27.0123 3.91249 26.6416 2.86341 25.8259 2.84863H25.8111C25.0499 2.87818 24.7039 3.90757 24.4962 4.41979C24.1354 5.32604 23.8882 6.2914 23.735 7.24198C23.5422 8.38464 23.4434 9.5667 23.4434 10.7389C23.4434 11.261 23.473 11.7732 23.4977 12.2805C24.0514 16.1222 25.5442 16.3291 25.8309 16.3291H25.8408Z" fill="#354439"/>
<path d="M21.491 17.0979H21.5058L21.5207 17.088C21.7925 16.9895 23.1371 16.2803 22.3264 12.4878C22.1929 11.9953 22.0298 11.5126 21.8469 11.0201C21.4465 9.92176 20.9473 8.84313 20.3739 7.83345C19.9043 6.99123 19.3556 6.16871 18.7031 5.43484C18.3324 5.02604 17.6255 4.16905 16.8544 4.43501H16.8395C16.1327 4.7256 16.1673 5.81409 16.1426 6.36079C16.1179 7.33599 16.2118 8.32597 16.3947 9.27163C16.6072 10.4094 16.9186 11.557 17.324 12.6553C17.5019 13.1478 17.7046 13.6157 17.9073 14.0836C19.7461 17.5067 21.2191 17.1915 21.491 17.093V17.0979Z" fill="#354439"/>
<path d="M17.6693 19.3039L17.6792 19.2941L17.689 19.2842C17.9115 19.0971 18.9298 17.9741 16.8685 14.689C16.5719 14.2703 16.2555 13.8714 15.9145 13.4724C15.1582 12.576 14.3228 11.7289 13.438 10.9802C12.7064 10.3498 11.9056 9.76369 11.0455 9.29579C10.5561 9.03967 9.59717 8.47819 8.96445 8.9855L8.95457 8.99535C8.39105 9.50265 8.79144 10.5173 8.95951 11.0393C9.27092 11.9653 9.70097 12.8617 10.2002 13.6891C10.7885 14.689 11.4805 15.6592 12.2318 16.5556C12.568 16.9546 12.9189 17.3289 13.2699 17.7032C16.1715 20.2939 17.4468 19.496 17.6693 19.3089V19.3039Z" fill="#354439"/>
<path d="M14.8381 22.6778V22.6679L14.853 22.6581C14.9963 22.4069 15.5697 21.0032 12.505 18.6193C12.0848 18.3288 11.6449 18.0628 11.1901 17.8018C10.1718 17.2156 9.09424 16.7083 8.00676 16.3045C7.10711 15.9597 6.14814 15.6839 5.17929 15.5361C4.63061 15.4622 3.53818 15.2603 3.11802 15.9548V15.9646C2.75717 16.6345 3.47886 17.4471 3.81994 17.8806C4.42794 18.644 5.14469 19.3434 5.8911 19.9492C6.78581 20.688 7.76949 21.3627 8.78283 21.9488C9.23759 22.2099 9.69236 22.4414 10.1521 22.6728C13.7655 24.116 14.6898 22.9339 14.8381 22.6827V22.6778Z" fill="#354439"/>
<path d="M13.3302 26.81V26.7952V26.7804C13.3796 26.4948 13.4389 24.9827 9.73654 23.7859C9.24222 23.6578 8.73803 23.5544 8.22394 23.4657C7.06725 23.2638 5.88091 23.1505 4.71927 23.1456C3.75537 23.1308 2.7618 23.1948 1.80284 23.3869C1.26404 23.5002 0.166666 23.6874 0.00848598 24.4853V24.5C-0.100263 25.2487 0.863645 25.7708 1.3283 26.0614C2.16368 26.5736 3.07322 26.9824 3.98769 27.2976C5.08506 27.6867 6.23681 27.9871 7.3935 28.1891C7.91253 28.2777 8.41672 28.3418 8.92587 28.4009C12.8161 28.524 13.2807 27.0957 13.3302 26.8149V26.81Z" fill="#354439"/>
<path d="M13.3352 31.2133V31.1985V31.1837C13.2857 30.8981 12.8211 29.455 8.93084 29.5978C8.4217 29.6471 7.91256 29.7209 7.39848 29.8096C6.24179 30.0115 5.09004 30.312 3.99267 30.7011C3.0782 31.0163 2.16866 31.4152 1.33328 31.9225C0.86368 32.2131 -0.10517 32.7598 0.0233508 33.5627V33.5774C0.186474 34.3162 1.26407 34.4787 1.80287 34.592C2.76184 34.789 3.76035 34.8629 4.72425 34.8481C5.88589 34.8383 7.07223 34.7299 8.22892 34.528C8.74795 34.4393 9.24226 34.3211 9.74151 34.2079C13.4439 33.0012 13.3846 31.499 13.3352 31.2133Z" fill="#354439"/>
<path d="M14.8528 35.3453V35.3354L14.838 35.3256C14.6947 35.0744 13.7604 33.8775 10.1519 35.3354C9.68729 35.5521 9.23747 35.7984 8.7827 36.0594C7.76442 36.6456 6.78568 37.3203 5.89098 38.0591C5.13962 38.6649 4.42287 39.3495 3.80993 40.1129C3.46885 40.5464 2.74716 41.3935 3.1426 42.1028V42.1126C3.55288 42.7529 4.62554 42.5362 5.16928 42.4623C6.13813 42.3195 7.10204 42.0486 8.00169 41.7087C9.08917 41.3049 10.1668 40.7976 11.1851 40.2114C11.6398 39.9504 12.0699 39.6697 12.4999 39.3939C15.5597 36.9952 14.9962 35.6063 14.8479 35.3551L14.8528 35.3453Z" fill="#354439"/>
<path d="M17.6952 38.7097L17.6853 38.6999L17.6754 38.69C17.453 38.5029 16.1678 37.7 13.276 40.2957C12.9152 40.6601 12.5741 41.0394 12.238 41.4433C11.4817 42.3397 10.7946 43.3099 10.2064 44.3098C9.71205 45.1323 9.26717 46.0238 8.95575 46.9497C8.78769 47.4718 8.39718 48.511 9.01013 49.0479L9.02001 49.0577C9.61813 49.5256 10.5524 48.9543 11.0368 48.6982C11.8969 48.2303 12.7125 47.654 13.4392 47.0236C14.324 46.27 15.1643 45.4278 15.9157 44.5314C16.2518 44.1324 16.5583 43.7237 16.8697 43.3149C18.926 40.0198 17.9127 38.9067 17.6902 38.7196L17.6952 38.7097Z" fill="#354439"/>
<path d="M21.5214 40.9066H21.5066L21.4918 40.8967C21.2199 40.7982 19.732 40.4781 17.908 43.9061C17.6954 44.3691 17.5076 44.8468 17.3247 45.3344C16.9243 46.4327 16.608 47.5803 16.3954 48.7181C16.2125 49.6637 16.1038 50.6488 16.1285 51.624C16.1483 52.1756 16.1384 53.2838 16.8996 53.5744H16.9144C17.6361 53.8108 18.3183 52.9587 18.6841 52.5499C19.3316 51.821 19.9001 50.9985 20.3647 50.1562C20.9381 49.1466 21.4374 48.0679 21.8378 46.9696C22.0157 46.4771 22.164 45.9895 22.3173 45.5019C23.118 41.7045 21.7834 41.0002 21.5115 40.9017L21.5214 40.9066Z" fill="#354439"/>
<path d="M25.8703 41.665H25.8555H25.8406C25.549 41.665 24.0463 41.8719 23.5075 45.7136C23.468 46.2209 23.4531 46.7331 23.4531 47.2552C23.4531 48.4274 23.552 49.6095 23.7448 50.7522C23.898 51.7027 24.1303 52.6681 24.4912 53.5743C24.6988 54.0816 25.0695 55.1307 25.8851 55.1455H25.9C26.6612 55.116 27.0072 54.0866 27.2148 53.5743C27.5757 52.6681 27.8228 51.7027 27.9761 50.7522C28.1689 49.6095 28.2677 48.4274 28.2677 47.2552C28.2677 46.7331 28.2381 46.2209 28.2133 45.7136C27.6597 41.8719 26.1669 41.665 25.8802 41.665H25.8703Z" fill="#354439"/>
<path d="M30.2151 40.8961H30.2003L30.1854 40.906C29.9136 41.0045 28.569 41.7137 29.3797 45.5062C29.5132 45.9987 29.6763 46.4814 29.8592 46.9739C30.2596 48.0722 30.7588 49.1509 31.3322 50.1606C31.8018 51.0028 32.3505 51.8253 33.003 52.5592C33.3737 52.968 34.0806 53.825 34.8517 53.559H34.8666C35.5734 53.2684 35.5388 52.1799 35.5635 51.6332C35.5883 50.658 35.4943 49.668 35.3114 48.7224C35.0989 47.5846 34.7875 46.4371 34.3821 45.3387C34.2042 44.8462 34.0015 44.3783 33.7988 43.9104C31.96 40.4873 30.487 40.8025 30.2151 40.9011V40.8961Z" fill="#354439"/>
<path d="M34.0378 38.6944L34.0279 38.7043L34.018 38.7141C33.7956 38.9013 32.7773 40.0242 34.8386 43.3094C35.1351 43.7281 35.4515 44.127 35.7926 44.5259C36.5489 45.4223 37.3843 46.2695 38.2691 47.0181C39.0007 47.6486 39.8014 48.2347 40.6615 48.7026C41.1509 48.9587 42.1099 49.5202 42.7426 49.0129L42.7525 49.003C43.316 48.4957 42.9156 47.4811 42.7475 46.959C42.4361 46.0331 42.0061 45.1367 41.5068 44.3092C40.9186 43.3094 40.2265 42.3391 39.4752 41.4427C39.1391 41.0438 38.7881 40.6695 38.4371 40.2951C35.5355 37.7044 34.2602 38.5023 34.0378 38.6895V38.6944Z" fill="#354439"/>
<path d="M36.8739 35.321V35.3309L36.8591 35.3408C36.7157 35.5919 36.1423 36.9956 39.2071 39.3795C39.6272 39.6701 40.0672 39.936 40.5219 40.1971C41.5402 40.7832 42.6178 41.2905 43.7053 41.6944C44.6049 42.0391 45.5639 42.3149 46.5328 42.4627C47.0814 42.5366 48.1739 42.7385 48.594 42.044V42.0342C48.9549 41.3644 48.2332 40.5517 47.8921 40.1183C47.2841 39.3548 46.5674 38.6555 45.8209 38.0497C44.9262 37.3109 43.9426 36.6361 42.9292 36.05C42.4745 35.7889 42.0197 35.5575 41.56 35.326C37.9466 33.8829 37.0222 35.0649 36.8739 35.3161V35.321Z" fill="#354439"/>
<path d="M38.377 31.1833V31.1981V31.2129C38.3275 31.4985 38.2682 33.0106 41.9706 34.2074C42.4649 34.3355 42.9691 34.4389 43.4832 34.5276C44.6399 34.7295 45.8262 34.8428 46.9879 34.8477C47.9518 34.8625 48.9453 34.7985 49.9043 34.6064C50.4431 34.4931 51.5405 34.306 51.6986 33.5081V33.4933C51.8074 32.7446 50.8435 32.2226 50.3788 31.932C49.5434 31.4197 48.6339 31.0109 47.7194 30.6957C46.6221 30.3066 45.4703 30.0062 44.3136 29.8043C43.7946 29.7156 43.2904 29.6516 42.7813 29.5925C38.891 29.4693 38.4264 30.8977 38.377 31.1784V31.1833Z" fill="#354439"/>
<path d="M38.3711 26.7851V26.7999V26.8147C38.4205 27.1003 38.8852 28.5434 42.7754 28.4006C43.2845 28.3514 43.7937 28.2775 44.3078 28.1888C45.4645 27.9869 46.6162 27.6864 47.7136 27.2973C48.6281 26.9821 49.5376 26.5832 50.373 26.0759C50.8426 25.7853 51.8114 25.2386 51.6829 24.4358V24.421C51.5198 23.6822 50.4422 23.5197 49.9034 23.4064C48.9444 23.2094 47.9459 23.1355 46.982 23.1503C45.8204 23.1601 44.634 23.2685 43.4773 23.4704C42.9583 23.5591 42.464 23.6773 41.9647 23.7906C38.2623 24.9972 38.3217 26.4995 38.3711 26.7851Z" fill="#354439"/>
<path d="M36.8592 22.6528V22.6627L36.874 22.6725C37.0174 22.9237 37.9516 24.1206 41.5601 22.6627C42.0248 22.446 42.4746 22.1997 42.9293 21.9387C43.9476 21.3526 44.9264 20.6778 45.8211 19.939C46.5724 19.3332 47.2892 18.6486 47.9021 17.8852C48.2432 17.4518 48.9649 16.6046 48.5694 15.8954V15.8855C48.1592 15.2452 47.0865 15.4619 46.5428 15.5358C45.5739 15.6787 44.61 15.9496 43.7104 16.2894C42.6229 16.6933 41.5453 17.2006 40.527 17.7867C40.0722 18.0477 39.6422 18.3285 39.2121 18.6043C36.1523 21.0029 36.7159 22.3918 36.8641 22.643L36.8592 22.6528Z" fill="#354439"/>
<path d="M34.017 19.2842L34.0269 19.2941L34.0368 19.3039C34.2592 19.4911 35.5444 20.2939 38.4361 17.6983C38.797 17.3338 39.1381 16.9546 39.4742 16.5507C40.2305 15.6543 40.9176 14.684 41.5058 13.6842C42.0001 12.8617 42.445 11.9702 42.7564 11.0442C42.9245 10.5222 43.315 9.48293 42.702 8.94608L42.6922 8.93622C42.094 8.46832 41.1598 9.03966 40.6754 9.29577C39.8153 9.76367 38.9996 10.3399 38.273 10.9704C37.3882 11.7239 36.5479 12.5662 35.7965 13.4625C35.4604 13.8615 35.1539 14.2703 34.8425 14.6791C32.7861 17.9741 33.7995 19.0872 34.0219 19.2744L34.017 19.2842Z" fill="#354439"/>
<path d="M30.1911 17.0874H30.2059L30.2207 17.0973C30.4926 17.1958 31.9805 17.5159 33.8045 14.088C34.017 13.625 34.2049 13.1472 34.3878 12.6596C34.7882 11.5613 35.1045 10.4137 35.3171 9.27596C35.5 8.33031 35.6087 7.34526 35.584 6.37005C35.5642 5.81842 35.5741 4.71024 34.8129 4.41965H34.798C34.0764 4.18323 33.3942 5.0353 33.0284 5.4441C32.3809 6.17304 31.8124 6.99556 31.3477 7.83778C30.7743 8.84747 30.2751 9.9261 29.8747 11.0244C29.6967 11.517 29.5485 12.0046 29.3952 12.4922C28.5944 16.2896 29.9291 16.9939 30.2009 17.0924L30.1911 17.0874Z" fill="#354439"/>
<path d="M128.244 29.8089C130.034 29.5232 131.823 29.2671 133.608 28.9814C133.608 34.1825 133.603 39.3787 133.608 44.5798C133.968 44.5798 134.329 44.5847 134.69 44.5798C136.539 42.1467 138.437 39.7481 140.291 37.3199C142.377 37.3199 144.463 37.3199 146.549 37.3199C144.29 40.2209 142.001 43.0924 139.757 46.0032C140.32 46.7371 140.765 47.5497 141.289 48.3131C143.276 51.3471 145.239 54.4008 147.236 57.4298C145.115 57.4101 142.995 57.4347 140.874 57.415C140.622 57.0801 140.389 56.7304 140.192 56.361C138.264 53.3615 136.361 50.3473 134.458 47.333H133.603V57.42H128.234C128.234 48.2146 128.234 39.0142 128.234 29.8089H128.244Z" fill="#354439"/>
<path d="M60.7253 30.3309C62.5642 30.3407 64.408 30.3013 66.2468 30.3506C68.7975 34.8523 71.3333 39.3638 73.879 43.8704C74.0569 44.1807 74.2102 44.5058 74.4425 44.7865C75.5201 42.9642 76.5285 41.1024 77.5814 39.2653C79.2076 36.384 80.8339 33.5027 82.4602 30.6165C82.5344 30.5131 82.5887 30.3259 82.7519 30.3358C84.5314 30.3161 86.3109 30.3358 88.0904 30.3259C88.214 30.9071 88.125 31.508 88.1497 32.099V51.1598C88.1349 53.2383 88.1794 55.3168 88.13 57.3903C86.4394 57.4593 84.7489 57.3903 83.0583 57.4248C82.8853 57.4051 82.5344 57.4937 82.5838 57.213C82.5789 51.8297 82.5838 46.4464 82.5838 41.063C82.5739 40.9645 82.5591 40.866 82.5492 40.7675C80.0579 45.1264 77.6456 49.5296 75.1592 53.8884C74.7144 54.0411 74.1904 53.9475 73.7208 53.9278C71.2492 49.5591 68.7925 45.1855 66.3259 40.8168C66.232 41.2009 66.2715 41.5999 66.2715 41.989C66.2715 46.8305 66.2715 51.6721 66.2715 56.5136C66.2616 56.8141 66.316 57.1342 66.1924 57.4199C64.3585 57.4199 62.5296 57.4396 60.7006 57.4051C60.7105 48.7662 60.7006 40.1272 60.7056 31.4883C60.7105 31.0992 60.6759 30.7101 60.7303 30.3259L60.7253 30.3309Z" fill="#354439"/>
<path d="M169.572 31.6658C171.362 31.2077 173.161 30.794 174.955 30.3359C174.921 32.6656 174.96 34.9952 174.935 37.3249C176.918 37.32 178.905 37.32 180.892 37.3249C180.897 38.8961 180.882 40.4721 180.902 42.0433C178.915 42.0384 176.932 42.0433 174.945 42.0433V47.7418C174.926 49.052 174.926 50.4113 175.474 51.6279C175.751 52.2041 176.216 52.7114 176.809 52.9676C177.896 53.3714 179.103 53.1055 180.111 52.608C180.358 52.4701 180.6 52.3174 180.862 52.1992C180.892 53.7901 180.838 55.3809 180.842 56.9767C179.488 57.5825 178 57.8879 176.507 57.883C174.891 57.9027 173.2 57.5087 171.95 56.4448C170.679 55.3908 170.032 53.7852 169.765 52.1943C169.503 50.5887 169.592 48.9535 169.577 47.3331C169.577 45.5698 169.577 43.8066 169.577 42.0433C168.43 42.0433 167.284 42.0433 166.137 42.0433C166.137 40.4771 166.137 38.9059 166.137 37.3397C167.284 37.3052 168.43 37.3446 169.577 37.32C169.582 35.4385 169.577 33.5571 169.577 31.6756L169.572 31.6658Z" fill="#354439"/>
<path d="M121.417 38.0393C122.603 37.1528 124.042 36.5913 125.529 36.5371C125.529 38.5171 125.524 40.502 125.529 42.4819C124.427 42.5755 123.315 42.738 122.282 43.1517C121.54 43.462 120.779 43.7526 120.117 44.2156C119.192 44.8017 118.426 45.6095 117.754 46.4665C117.754 50.121 117.754 53.7756 117.754 57.4301H112.386C112.391 50.7219 112.371 44.0137 112.396 37.3055C113.997 37.1823 115.599 36.9755 117.2 36.8671C117.373 38.8027 117.591 40.7384 117.719 42.6789C117.823 42.5459 117.927 42.408 118.001 42.2504C118.817 40.6251 119.973 39.1721 121.407 38.0442L121.417 38.0393Z" fill="#354439"/>
<path d="M152.851 37.1424C154.843 36.5021 157.038 36.4873 159.045 37.0734C160.527 37.5413 161.832 38.5412 162.653 39.8611C163.671 41.5012 164.096 43.4418 164.255 45.3479C164.383 46.589 164.319 47.8401 164.314 49.0862C160.414 49.0665 156.514 49.0862 152.614 49.0763C152.792 50.1254 153.128 51.1892 153.815 52.0216C154.265 52.6028 154.917 53.0067 155.599 53.2628C156.563 53.6076 157.601 53.642 158.615 53.5632C159.959 53.4401 161.269 53.0756 162.525 52.5929C163.133 52.3319 163.755 52.0955 164.294 51.7015C164.408 53.0953 164.502 54.4941 164.611 55.8929C161.778 57.6019 158.357 58.3309 155.075 57.8728C153.197 57.6167 151.318 56.8878 149.969 55.5284C148.758 54.3808 148.036 52.8244 147.611 51.2385C146.993 48.5592 146.988 45.732 147.616 43.0527C147.868 42.2203 148.135 41.388 148.585 40.6393C149.499 38.9943 151.052 37.7137 152.856 37.1522M155.199 41.4027C154.665 41.5505 154.255 41.9297 153.869 42.2991C153.385 42.9 153.039 43.6093 152.856 44.3579C152.693 44.7864 152.683 45.2543 152.584 45.6976C154.927 45.6926 157.265 45.6976 159.608 45.6976C159.588 44.9342 159.529 44.1658 159.267 43.4467C159.025 42.6488 158.441 41.9888 157.74 41.5554C156.944 41.2106 156.029 41.1121 155.204 41.4077L155.199 41.4027Z" fill="#354439"/>
<path d="M93.2319 37.724C95.6589 37.2905 98.0909 36.7635 100.567 36.8128C101.68 36.8177 102.797 36.9507 103.86 37.2758C104.868 37.6156 105.837 38.1426 106.554 38.9405C107.765 40.2063 108.284 41.9597 108.516 43.6589C108.714 45.2104 108.659 46.7766 108.669 48.3379C108.669 51.3817 108.669 54.4256 108.669 57.4694C106.88 57.4694 105.095 57.4694 103.306 57.4694C103.306 56.6912 103.306 55.913 103.306 55.1299C101.69 56.7158 99.4898 57.755 97.2061 57.8338C95.5502 57.9225 93.7904 57.3906 92.6881 56.11C91.2398 54.3862 91.1261 51.7807 92.1542 49.8253C92.9847 48.2542 94.5517 47.2445 96.1285 46.5156C98.3529 45.5551 100.731 45.0134 103.103 44.5553C102.955 43.7229 102.658 42.8512 101.991 42.2848C101.294 41.6149 100.281 41.4967 99.3564 41.4869C97.1023 41.5115 94.9323 42.1961 92.7474 42.6886C92.9303 41.0337 93.049 39.3788 93.2319 37.724ZM98.9955 49.2786C98.2837 49.648 97.6263 50.1356 97.1468 50.7809C96.8008 51.3276 96.6871 52.0319 96.9194 52.6475C97.1122 53.273 97.7647 53.6227 98.3776 53.7212C99.2476 53.8148 100.108 53.5538 100.899 53.2139C101.793 52.7904 102.609 52.2043 103.306 51.5049C103.301 50.2391 103.306 48.9684 103.306 47.7026C101.823 48.0769 100.355 48.5694 98.9955 49.2836V49.2786Z" fill="#354439"/>
<path d="M60.794 -0.00349966C64.2591 0.0112762 67.7242 -0.0379766 71.1844 0.026052C73.1666 0.114707 75.2378 0.365896 76.953 1.4396C77.7588 1.94198 78.4113 2.67585 78.8117 3.53285C79.4048 4.9267 79.4691 6.50278 79.1577 7.97052C78.866 9.33482 78.0405 10.5957 76.8394 11.3246C76.0929 11.8418 75.1982 12.0782 74.3282 12.2752C74.3282 12.4033 74.3283 12.5313 74.3332 12.6594C75.915 12.817 77.5413 13.2356 78.7869 14.2699C79.2565 14.6492 79.647 15.1269 79.9634 15.6441C80.6011 16.7276 80.8284 18.0033 80.8482 19.2445C80.8828 21.0274 80.4874 22.899 79.3109 24.2879C78.698 25.0415 77.8675 25.5981 76.9926 26.0019C75.1439 26.854 73.0776 27.0658 71.0609 27.0904C67.6353 27.0904 64.2146 27.0904 60.7891 27.0904C60.7891 18.0624 60.7891 9.02945 60.7891 0.00142562M66.3402 4.48835V10.9454C67.5562 10.9454 68.7672 10.9454 69.9833 10.9454C70.9422 10.8961 71.9506 10.7533 72.7563 10.2017C73.6164 9.65988 74.0119 8.60095 73.9872 7.6159C74.0119 6.74905 73.7104 5.83787 72.9887 5.31087C72.0248 4.63611 70.8088 4.53268 69.6669 4.50312C68.5596 4.47357 67.4474 4.4982 66.3402 4.49327M66.3402 22.2439C67.7836 22.2439 69.227 22.2439 70.6753 22.2439C71.5848 22.239 72.5141 22.0863 73.3199 21.6578C74.2195 21.1358 74.7138 20.1212 74.8028 19.1115C74.9214 18.0328 74.8374 16.8409 74.1651 15.9445C73.3594 14.9447 72.0149 14.659 70.7939 14.5556C69.311 14.4817 67.8231 14.5507 66.3402 14.5162C66.3501 17.0921 66.3402 19.6631 66.3402 22.239V22.2439Z" fill="#354439"/>
<path d="M115.09 6.98034C116.014 6.53214 117.023 6.24155 118.051 6.20215C118.051 8.18703 118.051 10.1719 118.051 12.1568C116.652 12.2455 115.263 12.5459 113.997 13.1616C112.692 13.7083 111.536 14.5899 110.651 15.6882C110.478 15.8902 110.241 16.1019 110.275 16.3925C110.275 19.9584 110.275 23.5243 110.275 27.0902H104.932C104.932 20.382 104.932 13.6787 104.932 6.97049C106.533 6.82273 108.135 6.67005 109.736 6.50752C109.875 8.04913 110.013 9.59074 110.161 11.1274C110.201 11.5214 110.201 11.9204 110.305 12.3046C110.3 12.3538 110.29 12.4572 110.285 12.5065C110.325 12.3686 110.374 12.2307 110.423 12.0928C110.878 11.2998 111.293 10.4724 111.892 9.76804C112.742 8.62538 113.824 7.6551 115.085 6.97542L115.09 6.98034Z" fill="#354439"/>
<path d="M170.507 7.92107C171.733 6.90646 173.28 6.26618 174.882 6.20215C174.882 8.18703 174.882 10.167 174.882 12.1519C173.606 12.2553 172.316 12.472 171.15 13.0286C169.523 13.6344 168.149 14.777 167.106 16.1463C167.106 19.791 167.106 23.4406 167.106 27.0853C165.327 27.0853 163.547 27.0853 161.763 27.0853C161.768 20.3771 161.748 13.6689 161.772 6.96557C163.369 6.81781 164.966 6.67005 166.562 6.50259C166.745 8.46285 166.948 10.4231 167.101 12.3883C167.259 12.0878 167.422 11.7923 167.591 11.4968C168.332 10.1424 169.316 8.91105 170.502 7.92107H170.507Z" fill="#354439"/>
<path d="M145.475 7.37472C146.903 6.62608 148.535 6.29609 150.146 6.33057C151.797 6.33057 153.512 6.68026 154.872 7.66039C155.925 8.42381 156.716 9.50244 157.24 10.6845C158.302 13.2259 158.381 16.0334 158.278 18.7423C154.377 18.7423 150.477 18.7423 146.577 18.7423C146.785 19.8357 147.116 20.9537 147.882 21.7959C148.742 22.7859 150.082 23.2045 151.357 23.2538C153.335 23.3129 155.292 22.7908 157.091 21.9979C157.516 21.8402 157.902 21.6088 158.283 21.3625C158.367 22.7662 158.49 24.165 158.589 25.5638C157.615 26.0957 156.622 26.5931 155.564 26.9281C154.017 27.4551 152.376 27.6767 150.744 27.6619C149.133 27.6324 147.507 27.3516 146.048 26.6572C144.892 26.1006 143.839 25.2781 143.102 24.2192C141.585 22.1555 141.169 19.5204 141.125 17.0184C141.125 14.8661 141.377 12.6448 142.346 10.6944C143.023 9.30543 144.13 8.12829 145.48 7.37472M148.208 11.6006C147.739 12.0094 147.368 12.5364 147.136 13.1127C146.805 13.8121 146.681 14.5804 146.538 15.329C146.795 15.3684 147.057 15.3635 147.319 15.3586C149.405 15.3586 151.486 15.3586 153.567 15.3586C153.552 14.3932 153.448 13.3934 152.979 12.5315C152.647 11.9799 152.203 11.4578 151.604 11.1918C150.517 10.6894 149.128 10.8126 148.204 11.6055L148.208 11.6006Z" fill="#354439"/>
<path d="M130.853 6.74436C132.148 6.39467 133.586 6.33064 134.817 6.93645C135.776 7.41913 136.547 8.24165 136.982 9.22177C137.936 11.1279 137.857 13.3147 137.847 15.3882C137.847 19.289 137.847 23.1898 137.847 27.0907C136.058 27.0907 134.268 27.0907 132.479 27.0907C132.479 23.2884 132.479 19.491 132.479 15.6887C132.469 14.5608 132.336 13.359 131.658 12.4183C131.055 11.5958 129.889 11.4234 128.964 11.7238C127.852 12.0883 126.898 12.8221 126.078 13.6397C126.078 18.1217 126.078 22.6037 126.078 27.0907H120.764C120.764 20.5006 120.764 13.9156 120.764 7.32555C122.538 7.08913 124.308 6.82317 126.082 6.60153C126.082 7.85255 126.092 9.10357 126.078 10.3546C126.443 9.98027 126.74 9.54192 127.125 9.18237C128.173 8.11359 129.444 7.24182 130.862 6.74929L130.853 6.74436Z" fill="#354439"/>
<path d="M84.1348 6.98571C85.9093 6.99556 87.679 6.97094 89.4536 7.00049C89.4536 11.0786 89.4536 15.1617 89.4536 19.2398C89.5079 20.3184 89.6809 21.4906 90.4521 22.3132C91.0403 22.983 92.0289 23.1505 92.8692 22.9436C94.0655 22.6629 95.0343 21.8354 95.8549 20.9686C95.8549 16.3093 95.8549 11.6499 95.8549 6.99064C97.6344 6.99556 99.4139 6.97094 101.198 7.00049C101.198 13.6989 101.198 20.3923 101.198 27.0907C99.4189 27.0907 97.6394 27.0907 95.8549 27.0907C95.8549 26.0219 95.8598 24.958 95.8549 23.8892C94.8762 25.0516 93.7887 26.1746 92.3947 26.8395C90.8376 27.6325 88.89 27.8393 87.2835 27.0759C86.2059 26.5932 85.4002 25.6426 84.9108 24.5886C84.3028 23.1899 84.1051 21.6433 84.1397 20.1313V6.98571H84.1348Z" fill="#354439"/>
<path d="M183.574 6V1.16559H180.902V-0.0078125H187.585V1.16559H184.913V6H183.581H183.574Z" fill="#354439"/>
<path d="M188.662 6V-0.0011072H190.735L192.114 3.08326C192.154 3.17713 192.208 3.30453 192.276 3.47216C192.343 3.63979 192.41 3.81412 192.484 3.99516C192.558 4.1762 192.626 4.34383 192.679 4.49805H192.74C192.794 4.36394 192.854 4.20973 192.922 4.03539C192.989 3.86106 193.063 3.68672 193.13 3.51909C193.198 3.35147 193.258 3.21066 193.305 3.09667L194.685 -0.0078125H196.71V5.99329H195.378V2.32558C195.378 2.225 195.378 2.11772 195.378 1.99032C195.378 1.86963 195.385 1.74894 195.391 1.62824C195.391 1.50755 195.405 1.40697 195.412 1.31981H195.344C195.317 1.40697 195.277 1.51426 195.23 1.63495C195.183 1.75564 195.136 1.88304 195.089 2.00373C195.041 2.12442 195.001 2.23171 194.954 2.32558L193.312 5.99329H192.013L190.364 2.32558C190.311 2.21159 190.264 2.0909 190.21 1.9635C190.163 1.8361 190.115 1.71541 190.075 1.60813C190.035 1.49414 190.001 1.40027 189.974 1.32651H189.907C189.907 1.39356 189.92 1.48744 189.92 1.60142C189.92 1.71541 189.92 1.8361 189.927 1.9568C189.927 2.08419 189.927 2.20489 189.927 2.32558V5.99329H188.648L188.662 6Z" fill="#354439"/>
</g>
<defs>
<clipPath id="clip0_2004_3776">
<rect width="196.709" height="58.0147" fill="white" transform="translate(0 -0.0078125)"/>
</clipPath>
</defs>
</svg>
